<?xml version="1.0" standalone="no"?>
<!DOCTYPE svg PUBLIC "-//W3C//DTD SVG 20010904//EN"
 "http://www.w3.org/TR/2001/REC-SVG-20010904/DTD/svg10.dtd">
<svg version="1.0" xmlns="http://www.w3.org/2000/svg"
 width="900.000000pt" height="360.000000pt" viewBox="0 0 900.000000 360.000000"
 preserveAspectRatio="xMidYMid meet">
<metadata>
Created by potrace 1.16, written by Peter Selinger 2001-2019
</metadata>
<g transform="translate(0.000000,360.000000) scale(0.100000,-0.100000)"
fill="#000000" stroke="none">
<path d="M300 1948 l0 -453 450 450 c248 247 450 451 450 452 0 2 -202 3 -450
3 l-450 0 0 -452z"/>
<path d="M1655 1950 l-450 -450 450 0 450 0 450 450 450 450 -450 0 -450 0
-450 -450z"/>
<path d="M3455 1950 l-450 -450 898 0 897 0 0 450 0 450 -448 0 -447 0 -450
-450z"/>
<path d="M5700 1500 l0 -900 450 0 450 0 0 900 0 900 -450 0 -450 0 0 -900z"/>
<path d="M7500 1500 l0 -900 450 0 450 0 0 900 0 900 -450 0 -450 0 0 -900z"/>
</g>
</svg>
